<svg width="21" height="24" viewBox="0 0 21 24" fill="none" xmlns="http://www.w3.org/2000/svg">
<path d="M1.56667 1.56667C1.15116 1.56667 0.752673 1.73173 0.458866 2.02553C0.165059 2.31934 0 2.71783 0 3.13333V4.7C0 5.11551 0.165059 5.51399 0.458866 5.8078C0.752673 6.10161 1.15116 6.26667 1.56667 6.26667H2.35V20.3667C2.35 21.1977 2.68012 21.9947 3.26773 22.5823C3.85535 23.1699 4.65232 23.5 5.48333 23.5H14.8833C15.7143 23.5 16.5113 23.1699 17.0989 22.5823C17.6865 21.9947 18.0167 21.1977 18.0167 20.3667V6.26667H18.8C19.2155 6.26667 19.614 6.10161 19.9078 5.8078C20.2016 5.51399 20.3667 5.11551 20.3667 4.7V3.13333C20.3667 2.71783 20.2016 2.31934 19.9078 2.02553C19.614 1.73173 19.2155 1.56667 18.8 1.56667H13.3167C13.3167 1.15116 13.1516 0.752673 12.8578 0.458866C12.564 0.165059 12.1655 0 11.75 0L8.61667 0C8.20116 0 7.80267 0.165059 7.50887 0.458866C7.21506 0.752673 7.05 1.15116 7.05 1.56667H1.56667ZM6.26667 7.83333C6.47442 7.83333 6.67366 7.91586 6.82057 8.06277C6.96747 8.20967 7.05 8.40891 7.05 8.61667V19.5833C7.05 19.7911 6.96747 19.9903 6.82057 20.1372C6.67366 20.2841 6.47442 20.3667 6.26667 20.3667C6.05891 20.3667 5.85967 20.2841 5.71277 20.1372C5.56586 19.9903 5.48333 19.7911 5.48333 19.5833V8.61667C5.48333 8.40891 5.56586 8.20967 5.71277 8.06277C5.85967 7.91586 6.05891 7.83333 6.26667 7.83333V7.83333ZM10.1833 7.83333C10.3911 7.83333 10.5903 7.91586 10.7372 8.06277C10.8841 8.20967 10.9667 8.40891 10.9667 8.61667V19.5833C10.9667 19.7911 10.8841 19.9903 10.7372 20.1372C10.5903 20.2841 10.3911 20.3667 10.1833 20.3667C9.97558 20.3667 9.77634 20.2841 9.62943 20.1372C9.48253 19.9903 9.4 19.7911 9.4 19.5833V8.61667C9.4 8.40891 9.48253 8.20967 9.62943 8.06277C9.77634 7.91586 9.97558 7.83333 10.1833 7.83333V7.83333ZM14.8833 8.61667V19.5833C14.8833 19.7911 14.8008 19.9903 14.6539 20.1372C14.507 20.2841 14.3078 20.3667 14.1 20.3667C13.8922 20.3667 13.693 20.2841 13.5461 20.1372C13.3992 19.9903 13.3167 19.7911 13.3167 19.5833V8.61667C13.3167 8.40891 13.3992 8.20967 13.5461 8.06277C13.693 7.91586 13.8922 7.83333 14.1 7.83333C14.3078 7.83333 14.507 7.91586 14.6539 8.06277C14.8008 8.20967 14.8833 8.40891 14.8833 8.61667V8.61667Z" fill="#FF4F5A"/>
</svg>
